<svg xmlns="http://www.w3.org/2000/svg" viewBox="0 0 512 512" role="img" aria-labelledby="title desc">
  <title id="title">Bluebutterfli AI Architecture Review Stamp</title>
  <desc id="desc">A passport-style Bluebutterfli AI advanced review stamp for architecture and tool-boundary review.</desc>
  <defs>
    <filter id="ink" x="-8%" y="-8%" width="116%" height="116%">
      <feTurbulence type="fractalNoise" baseFrequency="0.038" numOctaves="2" seed="86"/>
      <feDisplacementMap in="SourceGraphic" scale="1.35"/>
    </filter>
  </defs>
  <g filter="url(#ink)" fill="none" stroke="#7b61bd" stroke-linecap="round" stroke-linejoin="round">
    <path d="M104 132h304l44 56v192H104l-44-56V132Z" stroke-width="12" opacity=".92"/>
    <path d="M128 158h254l34 44v152H128l-34-44V158Z" stroke-width="4" stroke-dasharray="14 10" opacity=".72"/>
    <path d="M184 224h64v64h-64zM264 188h64v64h-64zM264 292h64v64h-64z" stroke-width="6" opacity=".78"/>
    <path d="M248 256h36M296 252v40M216 224v-34M296 188v-34M296 356v30" stroke-width="5" opacity=".68"/>
    <circle cx="216" cy="190" r="13" stroke-width="6"/>
    <circle cx="296" cy="154" r="13" stroke-width="6"/>
    <circle cx="296" cy="386" r="13" stroke-width="6"/>
  </g>
  <g fill="#7b61bd" font-family="Inter, Arial, sans-serif" font-weight="500" text-anchor="middle">
    <text x="256" y="98" font-size="23" letter-spacing="3">BLUEBUTTERFLI AI</text>
    <text x="256" y="186" font-size="17" letter-spacing="3">SYSTEM BOUNDARY</text>
    <text x="256" y="278" font-size="34" letter-spacing="3.4">ARCHITECTURE</text>
    <text x="256" y="320" font-size="35" letter-spacing="4">REVIEW</text>
    <text x="256" y="392" font-size="18" letter-spacing="2.2">BB-A2 | TOOLS + MEMORY</text>
    <text x="256" y="428" font-size="17" letter-spacing="2">HUMAN REVIEWED - SHA-256 RECORD</text>
  </g>
</svg>
