<svg xmlns="http://www.w3.org/2000/svg" viewBox="0 0 512 512" role="img" aria-labelledby="title desc">
  <title id="title">Bluebutterfli AI Absence Reflection Review Stamp</title>
  <desc id="desc">A passport-style Bluebutterfli AI behavioral review stamp for absence reflection review.</desc>
  <defs>
    <filter id="ink" x="-8%" y="-8%" width="116%" height="116%">
      <feTurbulence type="fractalNoise" baseFrequency="0.04" numOctaves="2" seed="17"/>
      <feDisplacementMap in="SourceGraphic" scale="1.3"/>
    </filter>
  </defs>
  <g filter="url(#ink)" fill="none" stroke="#8d4e8f" stroke-linecap="round" stroke-linejoin="round">
    <ellipse cx="256" cy="254" rx="188" ry="142" stroke-width="12" opacity=".92"/>
    <ellipse cx="256" cy="254" rx="164" ry="118" stroke-width="4" stroke-dasharray="13 9" opacity=".72"/>
    <path d="M120 224h272M120 304h272" stroke-width="4" opacity=".64"/>
    <path d="M172 258c0-37 33-66 84-66s84 29 84 66" stroke-width="7" opacity=".72"/>
    <path d="M174 276c24 38 51 57 82 57s58-19 82-57" stroke-width="7" opacity=".72"/>
    <path d="M151 190l22 13-22 13M361 292l-22-13 22-13" stroke-width="4" opacity=".65"/>
    <circle cx="256" cy="254" r="18" stroke-width="5" opacity=".74"/>
  </g>
  <g fill="#8d4e8f" font-family="Inter, Arial, sans-serif" font-weight="500" text-anchor="middle">
    <text x="256" y="92" font-size="24" letter-spacing="3">BLUEBUTTERFLI AI</text>
    <text x="256" y="185" font-size="17" letter-spacing="3.4">RETURN CHECK</text>
    <text x="256" y="248" font-size="44" letter-spacing="5">ABSENCE</text>
    <text x="256" y="294" font-size="36" letter-spacing="4">REFLECTION</text>
    <text x="256" y="345" font-size="18" letter-spacing="2.6">BB-02  |  NO DEPENDENCY CLAIM</text>
    <text x="256" y="420" font-size="18" letter-spacing="2.2">HUMAN REVIEWED - SHA-256 RECORD</text>
  </g>
</svg>
